<svg xmlns="http://www.w3.org/2000/svg" width="124" height="46" viewBox="0 0 124 46"><g fill-rule="evenodd" clip-rule="evenodd"><path fill="#fff" d="M43.223 30.547h1.835v7.266h4.478v1.557h-6.313v-8.823zM50.945 30.547h1.821v8.823h-1.821v-8.823zM28.6 30.547h1.805v8.823h-1.805v-8.823zM59.196 18.141c2.656 0 4.801 2.158 4.801 4.815 0 2.643-2.145 4.8-4.801 4.8-2.657 0-4.816-2.157-4.816-4.8 0-2.657 2.159-4.815 4.816-4.815zM65.787 30.547h6.915v1.452h-5.079v2.158h4.316v1.602h-4.316v2.142h5.079v1.469h-6.915v-8.823zM75.522 18.684h6.915v1.454h-5.081v2.143h4.332v1.6h-4.332v2.143h5.081v1.454h-6.915v-8.794zM33.209 39.37v-8.823h5.242s2.525.043 2.525 2.568c0 0 .234 2.101-1.909 2.95l2.657 3.305h-2.261l-3.67-4.58h1.909s1.365-.03 1.365-1.41c0-1.307-1.102-1.409-1.439-1.409h-2.584v7.399h-1.835zM65.465 27.478v-8.794h5.241s2.525.044 2.525 2.569c0 0 .22 2.085-1.908 2.937l2.656 3.288h-2.26l-3.671-4.551h1.908s1.366-.029 1.366-1.409c0-1.321-1.102-1.409-1.439-1.409h-2.583v7.369h-1.835zM45.615 27.478v-8.794h5.139s2.569.176 2.569 2.731c0 2.539-1.865 3.127-2.789 3.127h-2.071l-.983-1.337v4.272h-1.865v.001zM16.958 39.37l4.198-8.823h1.997l4.125 8.823h-2.026l-1.116-2.585h-4.066l-1.145 2.585h-1.967zM34.149 27.478l4.184-8.794h2.012l4.125 8.794h-2.04l-1.101-2.569h-4.067l-1.145 2.569h-1.968zM28.732 25.951h2.481v-4.037h1.761v5.563h-4.624c-.69 0-4.023-.778-4.052-4.286-.029-3.479 3.01-4.508 4.185-4.508h4.537v1.557h-4.096s-2.746 0-2.746 2.892c-.001 2.246 2.275 2.819 2.554 2.819zM55.158 30.547h1.85v1.364l1.16-1.364h2.188s2.994-.163 2.994 3.038v5.785h-1.864v-6.063s-.06-1.204-1.321-1.204h-3.157v7.268h-1.85v-8.824zM14.432 18.684h1.835v1.351l1.159-1.351h2.188s3.009-.161 3.009 3.039v5.755h-1.863v-6.033s-.073-1.204-1.336-1.204h-3.156v7.237h-1.835v-8.794h-.001zM10.086 18.684h1.806v8.794h-1.806v-8.794zM74.715 39.355v-1.498h5.108s1.013.191 1.013-1.042-.763-1.101-1.042-1.101h-2.951s-2.275.161-2.275-2.511c0-2.657 2.246-2.657 2.246-2.657h5.608v1.556h-4.918s-1.071 0-1.071 1.013.719 1.204 1.395 1.204h2.628s2.217-.235 2.217 2.408-2.275 2.628-2.275 2.628h-5.683zM.191 27.478v-1.498h5.109s1.013.192 1.013-1.041-.763-1.102-1.042-1.102h-2.952s-2.275.162-2.275-2.495c0-2.673 2.246-2.658 2.246-2.658h5.608v1.557h-4.918s-1.072 0-1.072 1.013c0 1.014.734 1.204 1.395 1.204h2.628s2.217-.234 2.217 2.393c0 2.644-2.276 2.628-2.276 2.628h-5.681v-.001z"/><path fill="#F99F1C" d="M0 43.084h85.843l-1.703 2.657h-84.14v-2.657zM101.479 41.88h-3.156l6.371-10.056s.955-2.085-.293-4.287l-8.883-14.711s-.777-1.365 0-2.672l2.628-3.936 10.424 17.032s2.687 3.567-.235 7.985l-6.856 10.645zM109.099 38.797l3.876-5.902s1.13-2.436 4.052-2.436h4.11l2.863 4.52s-2.261-.233-3.274 1.381l-4.228 6.371s-1.38 2.98-5.065 2.98h-19.909l7.576-11.628s1.071-1.365-.426-3.625l-6.739-10.835s-1.659-1.601.059-4.347l1.968-2.98 9.367 15.181s1.658 2.085 0 4.581l-7.033 10.966h14.828s1.674.31 3.112-1.834l3.686-5.668s.837-1.908 2.687-2.686h-2.98s-1.556.058-2.745 1.909l-3.274 5.063s-1.189 2.145-3.816 2.145h-5.184l6.255-9.705s3.406-4.478 1.014-8.588l-10.367-17.147s-.778-1.482.117-2.862l2.261-3.392 11.804 19.013s1.732 2.848 1.732 5.05c0 2.201-1.38 4.698-2.144 5.961l-5.197 8.104s-.587.777-.176 1.072c.426.293.837-.236 1.19-.662z"/><path fill="#232F67" d="M59.196 19.902c1.674 0 3.054 1.365 3.054 3.054 0 1.659-1.38 3.039-3.054 3.039-1.688 0-3.054-1.38-3.054-3.039 0-1.688 1.366-3.054 3.054-3.054zM47.451 22.927v-2.893h2.452s1.645-.088 1.645 1.483c0 1.38-1.336 1.409-1.645 1.409l-2.452.001zM40.683 23.396l-1.366-3.126-1.395 3.126h2.761zM23.49 35.288l-1.35-3.156-1.395 3.156h2.745z"/></g></svg>